<svg xmlns="http://www.w3.org/2000/svg" viewBox="0 0 620 132" role="img" aria-label="VLWarmte logo pattern A">
  <defs>
    <linearGradient id="pipeA" x1="0%" y1="0%" x2="100%" y2="100%">
      <stop offset="0%" stop-color="#f06a3d" />
      <stop offset="100%" stop-color="#bc3f1f" />
    </linearGradient>
    <filter id="shadowA" x="-10%" y="-20%" width="120%" height="150%">
      <feDropShadow dx="0" dy="4" stdDeviation="4" flood-color="#000000" flood-opacity="0.22" />
    </filter>
  </defs>

  <g filter="url(#shadowA)">
    <g transform="translate(18 18)">
      <rect x="0" y="10" width="190" height="86" rx="18" fill="#101a2a" stroke="#2d3a4c" stroke-width="2" />
      <path d="M24 78 H150 C166 78 174 70 174 58 C174 46 166 38 150 38 H42 C32 38 26 44 26 52 C26 60 32 66 42 66 H132 C139 66 143 62 143 57 C143 52 139 48 132 48 H58"
        fill="none" stroke="url(#pipeA)" stroke-width="10" stroke-linecap="round" stroke-linejoin="round" />
      <path d="M24 78 H150 C166 78 174 70 174 58 C174 46 166 38 150 38 H42 C32 38 26 44 26 52 C26 60 32 66 42 66 H132 C139 66 143 62 143 57 C143 52 139 48 132 48 H58"
        fill="none" stroke="#f6f8fc" stroke-width="2.4" stroke-linecap="round" stroke-linejoin="round" opacity="0.78" />
      <path d="M18 26 H172 M18 94 H172 M48 16 V100 M96 16 V100 M144 16 V100"
        stroke="#ffffff" stroke-width="1" opacity="0.08" />
    </g>

    <text x="236" y="78" font-family="Inter, Segoe UI, Arial, sans-serif" font-size="58" font-weight="850" letter-spacing="-1.4">
      <tspan fill="#f06a3d">VL</tspan>
      <tspan dx="8" fill="#f6f8fc">Warmte</tspan>
    </text>
    <text x="239" y="104" font-family="Inter, Segoe UI, Arial, sans-serif" font-size="16" font-weight="650" letter-spacing="1.6" fill="#9aabbe">
      VLOERVERWARMING
    </text>
  </g>
</svg>
