<svg xmlns="http://www.w3.org/2000/svg" viewBox="0 0 560 140" role="img" aria-label="VLWarmte">
  <defs>
    <linearGradient id="pipePink" x1="0%" y1="0%" x2="100%" y2="100%">
      <stop offset="0%" stop-color="#ff5ab3" />
      <stop offset="100%" stop-color="#ea2f93" />
    </linearGradient>
    <linearGradient id="pipeDark" x1="0%" y1="0%" x2="100%" y2="100%">
      <stop offset="0%" stop-color="#4b1535" />
      <stop offset="100%" stop-color="#1a2538" />
    </linearGradient>
    <filter id="logoShadow" x="-15%" y="-20%" width="130%" height="150%">
      <feDropShadow dx="0" dy="4" stdDeviation="5" flood-color="#000000" flood-opacity="0.28" />
    </filter>
  </defs>

  <g filter="url(#logoShadow)">
    <path d="M18 98 C74 96 122 96 187 92" stroke="#0f1724" stroke-width="7" stroke-linecap="round" fill="none" />

    <path d="M26 86 L57 56 L76 56 L46 86 Z" fill="#101827" />
    <path d="M49 86 L80 56 L100 56 L70 86 Z" fill="#192232" />
    <path d="M73 86 L104 56 L124 56 L94 86 Z" fill="#222d3d" />

    <path d="M70 55 C88 32 114 24 168 24 C180 24 186 30 186 38 C186 46 180 52 168 52 L118 52"
      stroke="url(#pipePink)" stroke-width="12" stroke-linecap="round" stroke-linejoin="round" fill="none" />
    <path d="M58 70 C82 44 118 37 193 37 C207 37 214 44 214 52 C214 61 206 67 193 67 L140 67"
      stroke="url(#pipePink)" stroke-width="14" stroke-linecap="round" stroke-linejoin="round" fill="none" />
    <path d="M44 87 C74 58 119 52 224 52 C241 52 251 60 251 70 C251 82 241 90 224 90 L158 90"
      stroke="url(#pipePink)" stroke-width="16" stroke-linecap="round" stroke-linejoin="round" fill="none" />

    <path d="M60 70 C85 44 120 37 193 37 C204 37 210 42 210 49 C210 56 204 61 193 61 L143 61"
      stroke="#f6f8fc" stroke-width="3.6" stroke-linecap="round" stroke-linejoin="round" fill="none" />
    <path d="M47 87 C76 58 120 52 224 52 C237 52 246 59 246 67 C246 76 237 84 224 84 L162 84"
      stroke="#f6f8fc" stroke-width="3.8" stroke-linecap="round" stroke-linejoin="round" fill="none" />

    <path d="M108 18 C105 10 111 5 117 1 C115 8 120 14 118 21 C116 27 112 31 107 34 C109 28 111 23 108 18 Z"
      fill="url(#pipePink)" />
    <path d="M128 16 C126 8 132 3 138 0 C136 7 142 13 140 21 C138 27 134 31 129 34 C131 27 133 22 128 16 Z"
      fill="url(#pipePink)" />
    <path d="M149 15 C147 6 154 1 161 0 C158 8 165 15 162 24 C160 30 155 34 149 37 C152 30 154 23 149 15 Z"
      fill="url(#pipePink)" />

    <path d="M264 20 L268 30 L279 34 L268 38 L264 49 L260 38 L249 34 L260 30 Z" fill="#ff4bad" />
  </g>

  <text x="22" y="128" font-family="Inter, Segoe UI, Arial, sans-serif" font-size="56" font-weight="800" letter-spacing="0.2">
    <tspan fill="#ff3f9b">VL</tspan>
    <tspan dx="6" fill="#e8eef7">Warmte</tspan>
  </text>
</svg>
