<svg xmlns="http://www.w3.org/2000/svg" viewBox="0 0 620 132" role="img" aria-label="VLWarmte logo pattern C">
  <defs>
    <linearGradient id="pipeC" x1="0%" y1="0%" x2="100%" y2="100%">
      <stop offset="0%" stop-color="#f06a3d" />
      <stop offset="100%" stop-color="#bc3f1f" />
    </linearGradient>
    <filter id="shadowC" x="-10%" y="-20%" width="120%" height="150%">
      <feDropShadow dx="0" dy="4" stdDeviation="4" flood-color="#000000" flood-opacity="0.22" />
    </filter>
  </defs>

  <g filter="url(#shadowC)">
    <g transform="translate(18 18)">
      <rect x="0" y="0" width="98" height="98" rx="24" fill="#101a2a" stroke="#2d3a4c" stroke-width="2" />
      <path d="M23 74 H67 C78 74 84 68 84 59 C84 50 78 44 67 44 H31 C24 44 20 48 20 54 C20 60 24 64 31 64 H58 C63 64 66 61 66 57 C66 53 63 50 58 50 H39"
        fill="none" stroke="url(#pipeC)" stroke-width="9" stroke-linecap="round" stroke-linejoin="round" />
      <path d="M23 74 H67 C78 74 84 68 84 59 C84 50 78 44 67 44 H31 C24 44 20 48 20 54 C20 60 24 64 31 64 H58 C63 64 66 61 66 57 C66 53 63 50 58 50 H39"
        fill="none" stroke="#f6f8fc" stroke-width="2" stroke-linecap="round" stroke-linejoin="round" opacity="0.8" />
      <path d="M18 24 H80 M18 86 H80 M49 12 V90" stroke="#ffffff" stroke-width="1" opacity="0.08" />
    </g>

    <text x="144" y="72" font-family="Inter, Segoe UI, Arial, sans-serif" font-size="58" font-weight="850" letter-spacing="-1.4">
      <tspan fill="#f6f8fc">VLWarmte</tspan>
    </text>
    <rect x="148" y="86" width="156" height="5" rx="2.5" fill="url(#pipeC)" />
    <text x="148" y="112" font-family="Inter, Segoe UI, Arial, sans-serif" font-size="15" font-weight="650" letter-spacing="1.4" fill="#9aabbe">
      VLOERVERWARMING
    </text>
  </g>
</svg>
