<svg xmlns="http://www.w3.org/2000/svg" viewBox="0 0 680 122" role="img" aria-label="VLWarmte meander legpatroon logo">
  <defs>
    <linearGradient id="pipeMeander" x1="0%" y1="0%" x2="100%" y2="100%">
      <stop offset="0%" stop-color="#f06a3d" />
      <stop offset="100%" stop-color="#bc3f1f" />
    </linearGradient>
    <filter id="shadowMeander" x="-10%" y="-20%" width="120%" height="150%">
      <feDropShadow dx="0" dy="4" stdDeviation="4" flood-color="#000000" flood-opacity="0.22" />
    </filter>
  </defs>

  <g filter="url(#shadowMeander)">
    <g transform="translate(20 20)">
      <rect x="0" y="0" width="188" height="76" rx="16" fill="#101a2a" stroke="#2d3a4c" stroke-width="2" />
      <path d="M18 18 H154 C168 18 176 26 176 38 C176 50 168 58 154 58 H34 C24 58 18 52 18 44 C18 36 24 30 34 30 H148 C154 30 158 34 158 38 C158 42 154 46 148 46 H42"
        fill="none" stroke="url(#pipeMeander)" stroke-width="10" stroke-linecap="round" stroke-linejoin="round" />
      <path d="M18 18 H154 C168 18 176 26 176 38 C176 50 168 58 154 58 H34 C24 58 18 52 18 44 C18 36 24 30 34 30 H148 C154 30 158 34 158 38 C158 42 154 46 148 46 H42"
        fill="none" stroke="#f6f8fc" stroke-width="2.2" stroke-linecap="round" stroke-linejoin="round" opacity="0.75" />
      <path d="M22 14 V62 M58 14 V62 M94 14 V62 M130 14 V62 M166 14 V62"
        stroke="#ffffff" stroke-width="1" opacity="0.07" />
    </g>

    <text x="242" y="72" font-family="Inter, Segoe UI, Arial, sans-serif" font-size="58" font-weight="850" letter-spacing="-1.4">
      <tspan fill="#f06a3d">VL</tspan>
      <tspan dx="8" fill="#f6f8fc">Warmte</tspan>
    </text>
  </g>
</svg>
