<svg xmlns="http://www.w3.org/2000/svg" viewBox="0 0 560 150" role="img" aria-label="VLWarmte logo variant A">
  <defs>
    <linearGradient id="ctaA" x1="0%" y1="0%" x2="100%" y2="100%">
      <stop offset="0%" stop-color="#e0552f" />
      <stop offset="100%" stop-color="#bc3f1f" />
    </linearGradient>
    <linearGradient id="darkA" x1="0%" y1="0%" x2="100%" y2="100%">
      <stop offset="0%" stop-color="#202a38" />
      <stop offset="100%" stop-color="#0b111c" />
    </linearGradient>
    <filter id="shadowA" x="-10%" y="-20%" width="120%" height="150%">
      <feDropShadow dx="0" dy="5" stdDeviation="5" flood-color="#000000" flood-opacity="0.25" />
    </filter>
  </defs>

  <g filter="url(#shadowA)">
    <path d="M24 96 C80 91 132 91 202 86" stroke="#111827" stroke-width="8" stroke-linecap="round" fill="none" />

    <path d="M32 82 L62 54 L84 54 L55 82 Z" fill="url(#darkA)" />
    <path d="M58 82 L89 54 L111 54 L82 82 Z" fill="#1d2735" />
    <path d="M84 82 L116 54 L138 54 L109 82 Z" fill="#263142" />

    <path d="M74 53 C96 30 126 25 182 25 C195 25 203 31 203 39 C203 48 195 54 182 54 L124 54"
      stroke="url(#ctaA)" stroke-width="14" stroke-linecap="round" stroke-linejoin="round" fill="none" />
    <path d="M60 70 C89 42 128 38 213 38 C229 38 238 45 238 56 C238 67 228 73 213 73 L145 73"
      stroke="url(#ctaA)" stroke-width="16" stroke-linecap="round" stroke-linejoin="round" fill="none" />
    <path d="M45 90 C82 60 130 55 252 55 C271 55 283 64 283 77 C283 91 270 100 252 100 L162 100"
      stroke="url(#ctaA)" stroke-width="18" stroke-linecap="round" stroke-linejoin="round" fill="none" />

    <path d="M65 70 C92 46 130 43 213 43 C224 43 231 48 231 55 C231 62 224 67 213 67 L148 67"
      stroke="#f6f8fc" stroke-width="4" stroke-linecap="round" stroke-linejoin="round" fill="none" opacity="0.9" />
    <path d="M50 90 C86 64 132 60 252 60 C265 60 274 66 274 75 C274 84 265 91 252 91 L166 91"
      stroke="#f6f8fc" stroke-width="4" stroke-linecap="round" stroke-linejoin="round" fill="none" opacity="0.9" />

    <path d="M113 22 C109 14 115 8 122 3 C120 12 126 18 124 26 C122 33 117 38 111 41 C114 33 116 28 113 22 Z" fill="url(#ctaA)" />
    <path d="M139 19 C136 11 143 5 150 0 C148 10 155 17 152 27 C150 34 145 39 138 43 C142 34 144 27 139 19 Z" fill="url(#ctaA)" />
    <path d="M166 18 C163 8 171 2 179 0 C176 10 184 18 181 29 C179 37 173 42 165 46 C169 36 172 28 166 18 Z" fill="url(#ctaA)" />

    <path d="M306 24 L311 38 L325 43 L311 48 L306 62 L301 48 L287 43 L301 38 Z" fill="#e0552f" />
  </g>

  <text x="28" y="137" font-family="Inter, Segoe UI, Arial, sans-serif" font-size="58" font-weight="850" letter-spacing="-1">
    <tspan fill="#e0552f">VL</tspan>
    <tspan dx="8" fill="#f6f8fc">Warmte</tspan>
  </text>
</svg>
