<svg xmlns="http://www.w3.org/2000/svg" viewBox="0 0 620 118" role="img" aria-label="VLWarmte logo variant C">
  <defs>
    <linearGradient id="ctaC" x1="0%" y1="0%" x2="100%" y2="100%">
      <stop offset="0%" stop-color="#e0552f" />
      <stop offset="100%" stop-color="#bc3f1f" />
    </linearGradient>
    <filter id="shadowC" x="-10%" y="-20%" width="120%" height="150%">
      <feDropShadow dx="0" dy="4" stdDeviation="4" flood-color="#000000" flood-opacity="0.22" />
    </filter>
  </defs>

  <g filter="url(#shadowC)">
    <g transform="translate(18 18)">
      <path d="M10 62 L38 34 L58 34 L31 62 Z" fill="#e8eef7" opacity="0.9" />
      <path d="M38 62 L66 34 L86 34 L59 62 Z" fill="#9aabbe" opacity="0.95" />
      <path d="M66 62 L94 34 L114 34 L87 62 Z" fill="#566273" />

      <path d="M52 34 C72 15 103 10 160 10 C176 10 185 18 185 29 C185 40 175 48 160 48 L110 48"
        stroke="url(#ctaC)" stroke-width="15" stroke-linecap="round" fill="none" />
      <path d="M36 64 C66 38 106 32 198 32 C218 32 230 42 230 56 C230 71 217 80 198 80 L126 80"
        stroke="url(#ctaC)" stroke-width="18" stroke-linecap="round" fill="none" />
      <path d="M42 64 C70 42 108 37 198 37 C211 37 220 44 220 54 C220 64 211 70 198 70 L130 70"
        stroke="#0d1624" stroke-width="5" stroke-linecap="round" fill="none" opacity="0.5" />

      <path d="M92 5 C88 -4 95 -10 103 -14 C100 -4 108 4 105 14 C103 21 98 26 91 30 C95 21 97 14 92 5 Z" fill="url(#ctaC)" />
      <path d="M122 4 C118 -6 126 -12 135 -16 C132 -4 141 4 138 16 C135 24 129 30 121 34 C126 23 128 14 122 4 Z" fill="url(#ctaC)" />
    </g>

    <text x="274" y="76" font-family="Inter, Segoe UI, Arial, sans-serif" font-size="58" font-weight="850" letter-spacing="-1.8">
      <tspan fill="#f6f8fc">VL</tspan>
      <tspan dx="8" fill="#f6f8fc">Warmte</tspan>
    </text>
    <rect x="274" y="87" width="186" height="5" rx="2.5" fill="url(#ctaC)" />
  </g>
</svg>
